<svg xmlns="http://www.w3.org/2000/svg" viewBox="0 0 512 512" style="height: 512px; width: 512px;"><defs><radialGradient id="lorc-tentacles-skull-gradient-0"><stop offset="0%" stop-color="#8a8b00" stop-opacity="1"></stop><stop offset="100%" stop-color="#000000" stop-opacity="1"></stop></radialGradient></defs><circle cx="256" cy="256" r="256" fill="url(#lorc-tentacles-skull-gradient-0)"></circle><g class="" transform="translate(0,0)" style=""><g transform="translate(25.6, 25.6) scale(0.9, 0.9) rotate(0, 256, 256) skewX(0) skewY(0)"><path d="M255.672 18.535C184.472 18.535 128.424 65.635 128.424 120.775C128.424 146.445 140.432 170.008 160.611 188.227L163.536 190.865L165.676 246.495L223.044 215.469L256.931 269.804L290.231 216.061L345.534 246.333L347.132 191.489L350.158 188.809C370.824 170.503 382.922 146.842 382.922 120.774C382.922 65.634 326.874 18.534 255.674 18.534Z" class="" fill="#9b104c" fill-opacity="1"></path><path d="M175.912 107.675C199.278 107.38 234.297 126.197 234.297 126.197C234.297 147.969 216.649 165.619 194.875 165.619C173.101 165.619 155.451 147.969 155.451 126.196L155.454 126.196C155.87 112.518 164.502 107.816 175.914 107.673Z" class="" fill="#371dab" fill-opacity="1"></path><path d="M335.428 107.675C346.838 107.817 355.471 112.519 355.888 126.197C355.888 147.969 338.238 165.621 316.465 165.621C294.693 165.621 277.043 147.971 277.043 126.198C277.043 126.198 312.063 107.381 335.428 107.675Z" class="" fill="#371dab" fill-opacity="1"></path><path d="M255.672 155.793L276.006 201.211L235.336 201.211L255.672 155.794Z" class="" fill="#371dab" fill-opacity="1"></path><path d="M216.48 240.263L194.28 252.271C201.103 287.371 197.05 319.104 176.324 351.204C158.467 378.848 112.974 400.211 80.644 379.882C40.628 354.732 69.034 316.286 93.364 339.902C91.851 287.386 44.531 292.032 29.971 323.824C-10.531 412.241 125.478 473.672 200.403 406.614C201.211 448.541 224.275 485.307 273.399 491.309C313.199 496.171 346.169 452.724 295.763 419.703C304.229 457.663 249.607 462.326 249.056 408.123C248.843 387.169 259.766 369.011 275.346 355.669C282.789 369.565 292.214 383.307 303.962 396.747C376 479.168 526.48 416.23 484.147 323.822C469.587 292.032 422.267 287.384 420.753 339.9C445.083 316.284 473.49 354.73 433.476 379.88C401.144 400.21 355.651 378.847 337.794 351.203C317.301 319.463 313.116 288.083 319.618 253.453L296.79 240.957L256.982 305.205L216.48 240.265Z" class="selected" fill="#6d018e" fill-opacity="1"></path></g></g></svg>